<?xml version="1.0" encoding="utf-8"?>
<!-- Generator: Adobe Illustrator 23.0.6, SVG Export Plug-In . SVG Version: 6.00 Build 0)  -->
<svg version="1.1" id="Layer_1" xmlns="http://www.w3.org/2000/svg" xmlns:xlink="http://www.w3.org/1999/xlink" x="0px" y="0px"
	 viewBox="0 0 314 357.4" style="enable-background:new 0 0 314 357.4;" xml:space="preserve">
<style type="text/css">
	.st0{fill-rule:evenodd;clip-rule:evenodd;fill:#343E32;}
	.st1{fill-rule:evenodd;clip-rule:evenodd;}
	.st2{fill-rule:evenodd;clip-rule:evenodd;fill:#E79F00;}
	.st3{clip-path:url(#SVGID_2_);}
	.st4{clip-path:url(#SVGID_4_);}
	.st5{clip-path:url(#SVGID_6_);}
	.st6{fill-rule:evenodd;clip-rule:evenodd;fill:#75BF4E;}
	.st7{fill-rule:evenodd;clip-rule:evenodd;fill:#B1BC7E;}
	.st8{fill-rule:evenodd;clip-rule:evenodd;fill:#F6D092;}
	.st9{clip-path:url(#SVGID_8_);}
	.st10{fill-rule:evenodd;clip-rule:evenodd;fill:#566C2E;}
	.st11{clip-path:url(#SVGID_10_);}
	.st12{clip-path:url(#SVGID_12_);}
	.st13{clip-path:url(#SVGID_14_);}
	.st14{clip-path:url(#SVGID_16_);}
	.st15{clip-path:url(#SVGID_18_);}
	.st16{clip-path:url(#SVGID_20_);}
	.st17{clip-path:url(#SVGID_22_);}
	.st18{fill-rule:evenodd;clip-rule:evenodd;fill:#D09077;}
	.st19{clip-path:url(#SVGID_24_);}
	.st20{fill-rule:evenodd;clip-rule:evenodd;fill:#774C29;}
	.st21{fill-rule:evenodd;clip-rule:evenodd;fill:#604722;}
	.st22{clip-path:url(#SVGID_26_);}
	.st23{clip-path:url(#SVGID_28_);}
	.st24{clip-path:url(#SVGID_30_);}
	.st25{clip-path:url(#SVGID_32_);}
	.st26{fill-rule:evenodd;clip-rule:evenodd;fill:url(#SVGID_33_);}
	.st27{fill-rule:evenodd;clip-rule:evenodd;fill:#1D2D5D;}
	.st28{fill-rule:evenodd;clip-rule:evenodd;fill:url(#SVGID_34_);}
	.st29{fill-rule:evenodd;clip-rule:evenodd;fill:url(#SVGID_35_);}
	.st30{fill-rule:evenodd;clip-rule:evenodd;fill:url(#SVGID_36_);}
	.st31{fill-rule:evenodd;clip-rule:evenodd;fill:url(#SVGID_37_);}
	.st32{fill-rule:evenodd;clip-rule:evenodd;fill:#FFFFFF;}
	.st33{clip-path:url(#SVGID_39_);}
	.st34{fill-rule:evenodd;clip-rule:evenodd;fill:url(#SVGID_40_);}
	.st35{fill-rule:evenodd;clip-rule:evenodd;fill:url(#SVGID_41_);}
	.st36{clip-path:url(#SVGID_43_);}
	.st37{clip-path:url(#SVGID_45_);}
	.st38{display:none;fill-rule:evenodd;clip-rule:evenodd;fill:url(#SVGID_46_);}
	.st39{display:none;fill-rule:evenodd;clip-rule:evenodd;fill:url(#SVGID_47_);}
	.st40{display:none;fill-rule:evenodd;clip-rule:evenodd;fill:url(#SVGID_48_);}
	.st41{display:none;fill-rule:evenodd;clip-rule:evenodd;fill:url(#SVGID_49_);}
	.st42{display:none;fill-rule:evenodd;clip-rule:evenodd;fill:url(#SVGID_50_);}
	.st43{display:none;fill-rule:evenodd;clip-rule:evenodd;fill:url(#SVGID_51_);}
	.st44{display:none;fill-rule:evenodd;clip-rule:evenodd;fill:url(#SVGID_52_);}
	.st45{display:none;fill-rule:evenodd;clip-rule:evenodd;fill:url(#SVGID_53_);}
	.st46{display:none;fill-rule:evenodd;clip-rule:evenodd;fill:url(#SVGID_54_);}
	.st47{fill-rule:evenodd;clip-rule:evenodd;fill:#F2CE7F;}
	.st48{fill-rule:evenodd;clip-rule:evenodd;fill:#BEBEBE;}
	.st49{clip-path:url(#SVGID_56_);}
	.st50{clip-path:url(#SVGID_58_);}
	.st51{fill-rule:evenodd;clip-rule:evenodd;fill:#9F6538;}
</style>
<path class="st0" d="M114.7,273.2l3.6,1.1l0.7,4.5l4.2-0.6l4.9,1.5l3.7,3.3l2.5-3.8l3.1,8.8l3.2-6.3l6.1,6.5l-0.3-5.5l3.5,2.4
	c0,0-0.7-3.3-1.7-6.3c-1-3.1-8.4-6.3-8.4-6.3s-8.2-4.1-10.3-4.8c-2.1-0.6-9.8-0.7-10.3-0.7C118.8,267,115.6,269.5,114.7,273.2z"/>
<path class="st0" d="M114.7,273.2l4.8-1.1l-0.1,3.9l2.6-5.9c0,0,1-2.2-0.5-2.5C120.2,267.3,116.5,269.9,114.7,273.2z"/>
<g>
	<path class="st0" d="M84.7,245.4c1-0.6,5.4-2.8,8.9-3.6c0.2-0.1,0.4-0.1,0.7,0c-0.3,0.1-0.7,0.2-1.1,0.4l0.5,5.2
		c0.5,0.1,1.2,0.2,1.6,0.4c0.9,0.5,1.3,1.1,1.3,1.1l0.1,0.2l0.8,4l0,0c0.6,3.7-2.2,6.2-5.1,6.9h-0.1c-3.2,0.7-6.8-0.5-7.5-4.2
		c0-0.2,0-0.3,0-0.5l-0.5-2.5c0-0.2,0-1.5,0.8-2.6c0.3-0.5,0.8-0.9,1.2-1.2L84.7,245.4L84.7,245.4z M87.6,251.9
		c-0.7,0.7-1.8,1.9-1.5,3.6c0.6,2.8,3.4,3.6,5.8,3c2.3-0.5,4.1-1.9,3.6-4.7c-0.4-2-1.8-2.6-2.7-2.9c-0.5-0.2-1-0.4-1-1l-0.1-1.6
		c0,0.5-3.3,1-4,0.8c0,0.1,0.5,1.4,0.5,1.4C88.4,251,88,251.5,87.6,251.9L87.6,251.9L87.6,251.9z M85.2,252.6c0.4-0.8,1-1.4,1.4-1.8
		l0.1-0.1l-0.1-0.4c-0.3,0.2-0.6,0.5-0.8,0.8C85.4,251.6,85.3,252.2,85.2,252.6L85.2,252.6L85.2,252.6z M86,244.7l1,2.7
		c0.3,0.1,0.7,0.2,1.2,0.1c0.9-0.1,1.3-0.2,1.4-0.2s0.5-0.1,1.3-0.5c0.6-0.2,0.5-0.5,0.8-0.8l-0.3-3.5C89.5,243.2,88,243.8,86,244.7
		L86,244.7L86,244.7z M93.9,249c0.4,0.2,1.2,0.5,1.9,1l-0.1-0.5c-0.1-0.1-0.5-0.5-0.9-0.8c-0.2-0.1-0.6-0.2-1-0.3L93.9,249
		C93.8,249,93.8,249,93.9,249L93.9,249z"/>
	<path class="st1" d="M91.7,257.2c1.6-0.4,2.8-1.8,2.5-3.2s-1.9-2.2-3.5-1.8s-2.8,1.8-2.5,3.2C88.5,256.8,90.1,257.6,91.7,257.2
		L91.7,257.2z M90.9,253L90.9,253c1.3-0.3,1.9,0.5,2.1,1.5s-0.1,1.7-1.4,2s-2.4-0.2-2.6-1.2C88.7,254.3,89.6,253.3,90.9,253z"/>
	<path class="st2" d="M91.9,258.5c2.3-0.5,4.1-1.9,3.6-4.7c-0.4-2-1.8-2.6-2.7-2.9c-0.5-0.2-1-0.4-1-1l-0.1-1.6
		c-0.4,0.3-1.2,0.4-1.9,0.6c-0.7,0.2-1.4,0.2-2.1,0.2l0.5,1.4c0.2,0.6-0.2,1-0.6,1.5c-0.7,0.7-1.8,1.9-1.5,3.6
		C86.7,258.3,89.5,259.1,91.9,258.5z"/>
	<path class="st2" d="M86.7,250.7l-0.1-0.4c-0.3,0.2-0.6,0.5-0.8,0.8c-0.4,0.6-0.5,1.2-0.6,1.5c0.4-0.8,1-1.4,1.4-1.8
		C86.6,250.7,86.7,250.7,86.7,250.7z"/>
	<path class="st2" d="M95.7,250l-0.1-0.5c-0.1-0.1-0.5-0.5-0.9-0.8c-0.2-0.1-0.6-0.2-1-0.3v0.4h0.1C94.3,249.2,95,249.5,95.7,250z"
		/>
	<path class="st2" d="M88.2,247.5c0.9-0.1,1.3-0.2,1.4-0.2s0.5-0.1,1.3-0.5c0.6-0.2,0.5-0.5,0.8-0.8l-0.3-3.5
		c-1.8,0.5-3.3,1.1-5.3,2.1l1,2.7C87.3,247.5,87.8,247.5,88.2,247.5z"/>
	<path class="st2" d="M90.7,253.2c-1,0.2-1.6,1.1-1.4,2c0.2,0.9,1,1.2,2,1c1-0.2,1.6-0.9,1.4-1.7C92.4,253.6,91.6,253,90.7,253.2z"
		/>
	<g>
		<g>
			<g>
				<defs>
					<path id="SVGID_1_" d="M95.5,253.8c-0.4-2-1.8-2.6-2.7-2.9c-0.5-0.2-1-0.4-1-1l-0.1-1.6c-0.4,0.3-1.2,0.4-1.9,0.6h-0.1
						c0.2,1,0.5,2,0.7,2.9c0.1,0.6,0.3,1.3,0.6,1.9c0.3,0.5,0.7,1,0.8,1.6c0.1,0.9-0.7,1.6-0.7,2.5c0,0.3,0.1,0.6,0.3,0.9
						c0.2,0,0.4,0,0.6-0.1C94.3,258,96,256.6,95.5,253.8z"/>
				</defs>
				<clipPath id="SVGID_2_">
					<use xlink:href="#SVGID_1_"  style="overflow:visible;"/>
				</clipPath>
				<g class="st3">
					
						<image style="overflow:visible;enable-background:new    ;" width="31" height="44" xlink:href="A1B0BD76.jpeg"  transform="matrix(0.1812 0 0 0.2015 89.8164 249.0128)">
					</image>
				</g>
			</g>
		</g>
	</g>
	<g>
		<g>
			<g>
				<defs>
					<path id="SVGID_3_" d="M92.6,254.5c-0.2-0.8-0.9-1.4-1.8-1.3c0.1,0.2,0.1,0.3,0.2,0.5c0.3,0.5,0.7,1,0.8,1.6
						c0,0.3,0,0.5-0.1,0.8C92.3,255.8,92.7,255.2,92.6,254.5z"/>
				</defs>
				<clipPath id="SVGID_4_">
					<use xlink:href="#SVGID_3_"  style="overflow:visible;"/>
				</clipPath>
				<g transform="matrix(1 0 0 1 0 0)" class="st4">
					
						<image style="overflow:visible;enable-background:new    ;" width="23" height="30" xlink:href="A1B0BD7A.jpeg"  transform="matrix(8.113913e-02 0 0 8.801739e-02 90.7491 253.3061)">
					</image>
				</g>
			</g>
		</g>
	</g>
	<g>
		<g>
			<g>
				<defs>
					<path id="SVGID_5_" d="M88.6,243.8c0.1,1.2,0.4,2.4,0.7,3.6c0.1,0,0.2,0,0.2,0c0.1,0,0.5-0.1,1.3-0.5c0.6-0.2,0.5-0.5,0.8-0.8
						l-0.3-3.5c-0.9,0.3-1.8,0.6-2.6,0.9C88.6,243.7,88.6,243.7,88.6,243.8z"/>
				</defs>
				<clipPath id="SVGID_6_">
					<use xlink:href="#SVGID_5_"  style="overflow:visible;"/>
				</clipPath>
				<g transform="matrix(1 0 0 1 0 0)" class="st5">
					
						<image style="overflow:visible;enable-background:new    ;" width="26" height="26" xlink:href="A1B0BD7A.jpeg"  transform="matrix(0.1131 0 0 0.1249 88.6343 243.3929)">
					</image>
				</g>
			</g>
		</g>
	</g>
	<path class="st0" d="M91.5,257.1c1.4-0.3,2.2-1.6,2-2.9c-0.3-1.3-1.6-2.1-2.9-1.8c-1.4,0.3-2.2,1.6-2,2.9
		C88.8,256.7,90.1,257.5,91.5,257.1L91.5,257.1z M90.7,253.2L90.7,253.2c1-0.2,1.8,0.4,1.9,1.3c0.2,0.9-0.4,1.5-1.4,1.7
		s-1.8-0.1-2-1C89,254.3,89.7,253.4,90.7,253.2z"/>
</g>
<g>
	<path class="st6" d="M85.3,234.9c2.9,1.8,3.8,6.5,2,10.4c-1.3,2.8-3.7,4.5-6,4.5l3.6-15.1C85.1,234.7,85.2,234.8,85.3,234.9z"/>
	<g>
		<g>
			<path class="st0" d="M93.2,200c20-3.1,40.8-1.6,53.1-0.5c5.2,0.5,17.3,2.5,18.3,2.9c4.3,1.3,4.8,5.4,0.1,9.1
				c-2.2,1.7-7.3,6.9-8.9,5.9c-16.5-10-40.4,3.5-44.8,6.8c-5.5,4.2-8.5,6-16.1,6.6c-2.7,0.2-5.8-0.2-8.7-1.3L93.2,200z"/>
			<path class="st7" d="M161.9,204.8c0,0-36.8-6.4-69.6-1.2l-5.7,23.7c5.8,1.9,13,1.4,19.2-3.5c18.5-14.7,41.6-15.4,51.1-9
				C164,210,169.1,206.1,161.9,204.8z"/>
		</g>
		<g>
			<polygon class="st8" points="103.2,226.9 97.2,220.2 109.9,216.7 108,221.2 105.3,225.2 			"/>
			<polygon class="st8" points="97.2,220.2 103.2,226.9 101.7,228.1 98.3,229.4 94.8,230.2 91.5,231.5 89.1,234.4 87.6,238.5 
				86.6,242.3 84.9,246.4 82.3,248.7 81.7,248.3 87.7,222.8 			"/>
			<polygon class="st7" points="81.7,248.3 82.3,248.7 84.9,246.4 86.6,242.3 87.6,238.5 89.1,234.4 91.5,231.5 94.8,230.2 
				98.3,229.4 101.7,228.1 105.3,225.2 108,221.2 109.9,216.7 87.7,222.8 			"/>
			<path class="st0" d="M81.6,248.7c2.4,0.4,4.1-3.2,5.1-6.4c0.9-3.2,1.8-8.9,4.9-10.8c3.1-1.9,7-1.6,10.2-3.4
				c4.2-2.3,6.7-6.7,8.2-11.4c-0.9,5.2-2.4,11-6.7,13.7c-2.3,1.5-9.9,1.2-11.2,3.8c-3.1,3.8-2.4,10.6-5.9,14.7
				c-1.6,1.8-3.4,2.4-5.1,2.2L81.6,248.7z"/>
		</g>
		<path class="st7" d="M133.9,210.8c0,0-17,2.9-23.7,8.9c1-5.9,1-7.9,1-7.9S106,227,99.3,227.4c-5.1,0.3-8.7,2.5-10.5,5.9
			c-2.5,6.4-4.4,15.3-7,14.4l4.8-20.3l0.3-0.5c5.5-0.1,22.9-13.7,25.2-19C117.2,209.6,133.9,210.8,133.9,210.8z"/>
		<g>
			<g>
				<g>
					<defs>
						<path id="SVGID_7_" d="M91.8,205.8c12.6-2.5,26.7-3.6,38.3-4.2c-11.6-0.4-24.9-0.2-37.7,1.9L91.8,205.8z"/>
					</defs>
					<clipPath id="SVGID_8_">
						<use xlink:href="#SVGID_7_"  style="overflow:visible;"/>
					</clipPath>
					<g transform="matrix(1 0 0 1 0 0)" class="st9">
						
							<image style="overflow:visible;enable-background:new    ;" width="139" height="25" xlink:href="A1B0BD7E.jpeg"  transform="matrix(0.1661 0 0 0.1735 99.3688 201.505)">
						</image>
					</g>
				</g>
			</g>
		</g>
	</g>
</g>
<g>
	<path class="st0" d="M220.7,96.8c-5.3-9.1-13.2-19-24.4-16.1c-3.9-1.2-7.4-8.1-11.4-10.8c-4.6-3-8.9-2.8-13.9-1.1
		c4.7-13.8,21.3-17.7,32.4-10.7C216.6,66.4,219.9,81.3,220.7,96.8z"/>
	<path class="st10" d="M199.3,77c6.4,0,13,3.2,17.5,8.1c-3-18.7-23.5-38.3-40-21.1c4.2-0.1,8.1,1.8,11.5,4.4
		C192.2,71.5,194.6,77,199.3,77C204.7,77,198.3,77,199.3,77z"/>
</g>
<g>
	<path class="st0" d="M197.8,106.9c-4.3,0.9-15.7-14.9-18.1-24.1c6.3-4.2,13.9-8.8,21.6-7.5c14.5,10.5,19.3,29.6,16.6,42.9
		C217.9,118.2,210.6,104.2,197.8,106.9z"/>
	<path class="st10" d="M216.2,111.7c-2.8-3.7-12.6-13.1-18.6-6.4l0,0c-3.4,0-13.2-12.9-16.1-21.9c5.2-3.4,15.5-6.3,18-6.9
		C212,85.7,216.3,99.2,216.2,111.7z"/>
</g>
<g>
	<g>
		<path class="st7" d="M72.7,312.8c-0.2,9.9,15.2,6.2,19.8,4l-3-7.8C84.3,302.7,72.7,301.5,72.7,312.8z"/>
		<path class="st0" d="M89.5,309c-5.2-6.3-16.8-7.4-16.8,3.9c-0.2,9.9,15.2,6.2,19.8,4c-5.5,5.1-23.5,8.8-23.2-3.8
			C69.7,300.6,84.3,295.9,89.5,309C88.7,306.9,88.6,306.9,89.5,309z"/>
	</g>
	<path class="st0" d="M81.9,326.8c-1.2-3.4-2-11-2-11c8.6-17.1,32.4-22.2,41.1-23.6c-1-4.1-2.6-10.8-3-12.9c-0.5-2.8,2.2-9.1,8-18.6
		l0.6-0.7c1-0.9,2.3-1.4,3.6-1.4c2.5,0,5.1,1.6,6.2,4c0.9,2,0.8,4.2-0.4,6c-1.3,1.9-3.8,7.5-5.2,10.6l5.5,11.3
		c1.5,1.1,5.4,4.2,9.8,9.3c5.5,6.5,4.4,12.1,3.3,14.8c-2.2,5.5-8.5,10.9-19.3,8.5C127.8,322.3,87.5,342.4,81.9,326.8z"/>
	<path class="st7" d="M128.4,262.3c0,0-8.1,13.4-7.6,16.4s3.8,16.1,3.8,16.1s-31.7,2.7-41.5,22.4c-1.8,6.5,2.5,13.1,13.8,11.7
		s29.2-9.7,33.7-8.7c11.8,2.5,22.5-7.4,13.3-18.3c-5.3-6.3-9.8-9.3-9.8-9.3l-6.5-13.4c0,0,4-9.5,6-12.5
		C135.7,263.7,131,260.2,128.4,262.3z"/>
	<path class="st10" d="M121.8,282.8c1.6,0.8,4.3,1.8,8.4,1.5l-2.5-5.1c0,0,4-9.5,6-12.5s-2.8-6.5-5.3-4.4c0,0-8.1,13.4-7.6,16.4
		C121,279.5,121.4,281,121.8,282.8z"/>
	<g>
		<path class="st7" d="M69.2,318.2c0.6,11.1,17.6,5.4,22.5,2.4l-4.1-8.5C81.3,305.6,68.2,305.5,69.2,318.2z"/>
		<path class="st0" d="M87.6,312.1c-6.4-6.5-19.5-6.6-18.5,6.1c0.6,11.1,17.6,5.4,22.5,2.4c-5.7,6.3-25.1,12.9-25.9-1.2
			C65,303.4,81.2,301,87.6,312.1C85.9,310.3,86.4,309.9,87.6,312.1z"/>
	</g>
	<g>
		<path class="st7" d="M73.8,325.7c2.2,11.5,18.8,2.8,23.5-1.2l-5.3-8.2C84.5,310.6,71,312.7,73.8,325.7z"/>
		<path class="st0" d="M92,316.4c-7.5-5.8-20.9-3.7-18.1,9.4c2.2,11.5,18.8,2.8,23.5-1.2c-2.1,8.3-23.9,17.6-26.6,3
			C68.1,313.1,83.8,305.8,92,316.4C89.9,314.8,90.3,314.3,92,316.4z"/>
	</g>
	<path class="st7" d="M135.3,294.1c0,0,11.4,11.1,10.7,15.8c-0.7,5.1-6.4,11.8-16.5,8.9c-7.4,1.8-27,8-32.1,8.9
		c1.7-2.7,0.2-6.2,0.2-6.2s12.1-12.5,29-12.4C134.5,309,140.2,300.4,135.3,294.1z"/>
	<g>
		<g>
			<g>
				<defs>
					<path id="SVGID_9_" d="M124.7,296c-3.3-0.5-28.2,5.5-35.9,15.3c2.4,1.8,2,3.5,4.5,1.8c2.5-1.8,34-3.5,35.2-10
						C129.8,296.7,124.7,296,124.7,296z"/>
				</defs>
				<clipPath id="SVGID_10_">
					<use xlink:href="#SVGID_9_"  style="overflow:visible;"/>
				</clipPath>
				<g transform="matrix(1 0 0 1 0 0)" class="st11">
					
						<image style="overflow:visible;enable-background:new    ;" width="142" height="68" xlink:href="A1B0BD7E.jpeg"  transform="matrix(0.2439 0 0 0.262 91.4578 295.9565)">
					</image>
				</g>
			</g>
		</g>
	</g>
	<path class="st7" d="M95.3,323.3c-0.5,2-14,10.9-18.8,4.9c-3.4-4.2-1.3-10.9,2-12.3C81.9,314.5,97.2,316,95.3,323.3z"/>
	<g>
		<g>
			<g>
				<defs>
					<path id="SVGID_11_" d="M89.8,315.9c-2.2-1.4-16.5-4.7-15,8.2C76.7,318.6,81.6,315.2,89.8,315.9z"/>
				</defs>
				<clipPath id="SVGID_12_">
					<use xlink:href="#SVGID_11_"  style="overflow:visible;"/>
				</clipPath>
				<g class="st12">
					
						<image style="overflow:visible;enable-background:new    ;" width="60" height="42" xlink:href="A1B0BD7A.jpeg"  transform="matrix(0.2147 0 0 0.2289 75.8296 314.4762)">
					</image>
				</g>
			</g>
		</g>
	</g>
	<g>
		<g>
			<g>
				<defs>
					<path id="SVGID_13_" d="M84.9,310.6c0,0-7.4-4.8-12.6-0.5c-4.3,3.5-1.9,10.3-1.9,10.3C70.7,317,74,308.9,84.9,310.6z"/>
				</defs>
				<clipPath id="SVGID_14_">
					<use xlink:href="#SVGID_13_"  style="overflow:visible;"/>
				</clipPath>
				<g transform="matrix(1 0 0 1 0 0)" class="st13">
					
						<image style="overflow:visible;enable-background:new    ;" width="58" height="51" xlink:href="A1B0BD7A.jpeg"  transform="matrix(0.2168 0 0 0.2368 71.0322 308.3721)">
					</image>
				</g>
			</g>
		</g>
	</g>
</g>
<path class="st0" d="M121.6,275.6l1.1-1.6l-0.2,5.8l5.5-3.3l2.9-1.5l0.9,6.4l3.1-5.2l2.5,9l3-6.6l4.9,6.5l0.2-4.9l3.8,2.1
	c0,0-0.9-2.6-1.1-4.6c-0.2-2-7.3-5.7-7.6-5.9s-4-1.1-6.7-1.4c-2.7-0.4-7.6-0.3-8.8-0.3C123.9,270.1,115.9,276.1,121.6,275.6z"/>
<path class="st0" d="M204.1,337.3c-8.6,0-18.8-9.7-19.4-10c-12.2-0.4-20.2-7.5-20.6-14c-0.6-8.6,10.3-23.7,13-31.3l-4.4-14.8
	l0.4-1.1c1.2-3.5,4.2-5.5,8.3-5.5c1.2,0,2.1,0.2,2.2,0.2l1.2,0.3l0.8,1.1c1.3,1.8,7.9,10.9,7.5,17.2c-0.2,3.1-6.1,9.8-6.2,12.5
	c23.8-0.6,42.2,15.3,45.7,21.6c2.2,3.9,1.7,7.2,0.9,9.3c-2.1,5.5-8.8,9.7-21.1,13.3C209.5,336.9,206.7,337.3,204.1,337.3z"/>
<path class="st7" d="M176.3,267.4l3.7,14.9c0,0-13.2,24.4-12.4,30.9c0.7,5.7,11.1,12,16.5,10.5s8.7,14.2,27.5,8.7
	s21.2-11.6,18.1-17.1c-3-5.5-24.5-25.8-45.7-20c-0.3-7.6,5.4-11.3,5.7-16.4s-6.7-14.6-6.7-14.6S177.6,263.4,176.3,267.4z"/>
<path class="st10" d="M177.6,286.8c1.9-0.1,6.2-0.6,10.4-3c0.9-1.6,1.6-3.1,1.7-4.8c0.3-5.1-6.7-14.6-6.7-14.6s-5.4-1.1-6.7,2.9
	l3.7,14.9C180,282.3,178.9,284.1,177.6,286.8z"/>
<path class="st7" d="M235.3,319.7c2.4-11.4-9.4-13.3-15.9-8.2l-4.6,7.1C218.9,322.2,233.1,329.8,235.3,319.7z"/>
<path class="st0" d="M219.4,311.5c6.9-11.8,21.6-3.6,19.3,8.9c-2.4,12.7-19.9,5.2-23.9-1.8c4.2,3.6,18.4,11.2,20.5,1.1
	C237.7,308.3,225.9,306.4,219.4,311.5C220.8,309.7,221.1,310.1,219.4,311.5z"/>
<g>
	<path class="st7" d="M229.4,326.5c2.7-12.8-10.5-14.9-17.8-9.1l-5.2,8C211.1,329.4,227,337.9,229.4,326.5z"/>
	<path class="st0" d="M211.6,317.4c7.9-10.1,23-4.3,20.4,9.8c-2.7,14.2-20.8,8.6-25.6-1.8c4.6,4,20.6,12.5,23,1.2
		C232.1,313.8,218.9,311.6,211.6,317.4C213.2,315.4,213.6,315.8,211.6,317.4z"/>
</g>
<path class="st7" d="M224.3,332.3c3-14.1-11.6-16.5-19.7-10.1l-5.8,8.8C203.9,335.5,221.6,344.9,224.3,332.3z"/>
<path class="st0" d="M204.6,322.2c8.7-11.2,25.5-4.7,22.7,10.8c-3,15.8-23.5,6.6-28.4-2c5.2,4.5,22.8,13.9,25.5,1.3
	C227.3,318.2,212.6,315.8,204.6,322.2C206.3,319.9,206.7,320.5,204.6,322.2z"/>
<path class="st7" d="M175.6,294.1c0,0-7,14.1-6.5,19.4c0.4,4,10.2,10.8,17.6,8.1c2,2.7,6.5,8,11.4,8.9c1.5-4.6,3.7-8,6.9-10.7
	c-4-2.5-10.6-9.8-16.3-9.1C183,311.4,173.9,303.2,175.6,294.1z"/>
<g>
	<g>
		<g>
			<defs>
				<path id="SVGID_15_" d="M225.1,311.4c0,0-12.6-10.9-23-13.8c-7.7-2.1-17.7-1.6-18.5,0.7c-0.8,2.3,4.8,13.1,18.6,15
					s16.1,2.3,16.1,2.3S220.9,311.1,225.1,311.4z"/>
			</defs>
			<clipPath id="SVGID_16_">
				<use xlink:href="#SVGID_15_"  style="overflow:visible;"/>
			</clipPath>
			<g transform="matrix(1 0 0 1 0 0)" class="st14">
				
					<image style="overflow:visible;enable-background:new    ;" width="144" height="74" xlink:href="A1B0BD76.jpeg"  transform="matrix(0.2451 0 0 0.2615 186.6868 296.282)">
				</image>
			</g>
		</g>
	</g>
</g>
<g>
	<g>
		<g>
			<defs>
				<path id="SVGID_17_" d="M206.7,322.2c0,0,7.3-4.9,13.4,0.1c6,5,2.7,11.5,2.7,11.5C221.8,327.8,217.4,319.4,206.7,322.2z"/>
			</defs>
			<clipPath id="SVGID_18_">
				<use xlink:href="#SVGID_17_"  style="overflow:visible;"/>
			</clipPath>
			<g transform="matrix(1 0 0 1 0 0)" class="st15">
				
					<image style="overflow:visible;enable-background:new    ;" width="68" height="53" xlink:href="A1B0BD76.jpeg"  transform="matrix(0.2352 0 0 0.2565 207.1632 320.0624)">
				</image>
			</g>
		</g>
	</g>
</g>
<g>
	<g>
		<g>
			<defs>
				<path id="SVGID_19_" d="M214.2,316.6c1.2-1.5,17-4,14.3,9.8C226.3,321.3,221.7,315.3,214.2,316.6z"/>
			</defs>
			<clipPath id="SVGID_20_">
				<use xlink:href="#SVGID_19_"  style="overflow:visible;"/>
			</clipPath>
			<g class="st16">
				
					<image style="overflow:visible;enable-background:new    ;" width="56" height="45" xlink:href="5E8B6269.jpeg"  transform="matrix(0.2241 0 0 0.2413 215.2162 315.5216)">
				</image>
			</g>
		</g>
	</g>
</g>
<g>
	<g>
		<g>
			<defs>
				<path id="SVGID_21_" d="M220.8,311.2c0,0,12.6-6.7,13.7,7.1C233.1,315.5,227.6,309.2,220.8,311.2z"/>
			</defs>
			<clipPath id="SVGID_22_">
				<use xlink:href="#SVGID_21_"  style="overflow:visible;"/>
			</clipPath>
			<g transform="matrix(1 0 0 1 0 0)" class="st17">
				
					<image style="overflow:visible;enable-background:new    ;" width="54" height="42" xlink:href="5E8B626F.jpeg"  transform="matrix(0.194 0 0 0.2079 222.425 309.538)">
				</image>
			</g>
		</g>
	</g>
</g>
<g>
	<path class="st0" d="M149.5,263.2c-13.3,0-22.4-5.5-25.1-15.1c-8.1-29.6,23.6-74.5,23.6-74.5c5.2-3.4,10.7-5.6,14.9-5.6
		c17.1,0,22.3,27,25.7,52.7c6.1,8.6,4.9,16,2.8,20.8C185.5,255.1,165.4,263.2,149.5,263.2L149.5,263.2z"/>
	<path class="st7" d="M151.2,177.1c0,0-33.2,46-22.3,70.1c12,26.6,79.6,5.9,56.8-24.6C180.8,185.8,174.5,161.8,151.2,177.1z"/>
	<path class="st18" d="M145.4,186.7c0,0-2.4,7,6.9,7.8c6.8,0.6,23.8-6.9,23.4-13.1C175.4,174.3,145.2,181.3,145.4,186.7z"/>
	<g>
		<g>
			<g>
				<defs>
					<path id="SVGID_23_" d="M135,247c-7.5-16.8,3.4-45.6,10.7-61.6c-8.9,14.4-24.8,44-16.9,61.8c4.3,9.5,15.7,13,27.6,12.1
						C147,258.7,138.6,254.9,135,247z"/>
				</defs>
				<clipPath id="SVGID_24_">
					<use xlink:href="#SVGID_23_"  style="overflow:visible;"/>
				</clipPath>
				<g class="st19">
					
						<image style="overflow:visible;enable-background:new    ;" width="111" height="261" xlink:href="5E8B6269.jpeg"  transform="matrix(0.2535 0 0 0.2773 127.4794 186.2136)">
					</image>
				</g>
			</g>
		</g>
	</g>
</g>
<g>
	<path class="st0" d="M167.7,193c0,0,2-10,9.6-10c5.9,0,29.1,24.8,29.1,24.8c7.6-6.4,20.6-20.1,20.6-20.1l26.4,21.9
		c0,0-37.7,16.5-46.6,14.3c-7-1.7-31.5-25.1-31.5-25.1S166.8,199.8,167.7,193z"/>
	<path class="st7" d="M209.2,220.8c-0.4,0-0.8,0-1.1-0.1c-5.5-1.1-21.7-16.6-32.5-23.3c-17,3-8.9-10.1,0.3-11.7
		c5.3,0.5,30.6,25.9,30.6,25.9s19.8-18.3,23.1-21.4l19,18.1C244.2,212.3,216.7,220.8,209.2,220.8z"/>
	<path class="st7" d="M201.6,216.4c0,0,3.8,3.2,7.7,3.1c11.7-0.3,37.9-11.2,37.9-11.2s-8.7-1.5-19.8-14.1
		c-8.6,8.5-20.5,18.1-20.5,18.1S197.1,210.6,201.6,216.4z"/>
</g>
<g>
	<path class="st0" d="M173.2,283.4c-4.6,0.1-10-1.8-10-1.8s-1.8-13.4-3.8-17.5l-11,1.2c-1,2.4-0.8,6.4-0.5,9.9l0,0l0,0
		c0.3,3.2,0.8,5.8,0.8,5.8l-3.7-3.1l-0.3,3.2c-0.5,0-1,0-1.5,0l-3.1-5c0,0-1.1,3-2,4.8c-0.5,0-1-0.1-1.6-0.1
		c-0.6-2.4-1.4-6.8-1.4-6.8l-3.4,5.7l-0.1-6.2l-8.6,5l0.9-8.3l-4.1,6l1.2-6.7l-6.4,3.6c-0.2-0.4,0.2-1.8,0.2-1.8
		c1.1-7.8,5.7-17.7,6.9-21.5c-0.8-2.4-2.6-10.2-0.3-18.1c2.1,1.4,7.1,4.9,21.2,4c28.9-1.8,46.4-18.2,46.4-18.2l1.8,3.2
		c5,9.1,5.1,17.7,2,25.1c-1.2,15.3,8.1,25.1,8.1,25.1S191.6,281.7,173.2,283.4z"/>
	<path class="st20" d="M190.4,245.2c4-8.7,0.1-17.8-2.4-22.5c-41.2,27.2-64.7,13.4-64.7,13.4c-1.5,9.5,1.5,14.7,1.5,14.7
		s-4.8,11.1-6.2,20.3l2.6-1.5l-0.7,3.9c0.3,0.2,0.7,0.4,1,0.6l2.6-3.8l-0.5,4.7c1.2,0.4,2.5,0.8,3.9,1.1l4.4-2.5v3.4
		c0.5,0.1,1.1,0.2,1.6,0.2l1.9-3.1c0,0,0.3,1.6,0.6,3.4c1.3,0.1,2.6,0.2,3.7,0.3c0.4-0.9,0.6-1.6,0.6-1.6l1.1,1.7
		c2.3,0.1,3.8,0.1,3.8,0.1s-1.3-8.2,0.1-13.7c-5.4-0.9-11.2-3.5-14.9-9.8c4.6,5,11,7.2,16.5,7.3c3.8,0.1,15-0.9,15-0.9
		s2.6,7.2,4.1,18.1c15.6,4.6,30.6-8.7,30.6-8.7S190.1,260.2,190.4,245.2z"/>
	<path class="st21" d="M189.8,226.5c-0.6-1.5-1.3-2.7-1.8-3.8c-41.2,27.2-64.7,13.4-64.7,13.4c-1.5,9.5,1.5,14.7,1.5,14.7
		s-4.8,11.1-6.2,20.3l2.6-1.5l-0.7,3.9c0.3,0.2,0.7,0.4,1,0.6l1.9-2.8c-0.7-0.3-1.1-0.5-1.1-0.5c1.6-16.2,10.8-21.7,10.8-21.7
		c-2.7-2.5-2.1-4.8-2.1-4.8C166.7,249,186.3,230.1,189.8,226.5L189.8,226.5z M123.5,274.9c1.2,0.4,2.5,0.8,3.9,1.1l4.4-2.5v3.4
		c0.5,0.1,1.1,0.2,1.6,0.2l1.9-3.1c0,0,0.3,1.6,0.6,3.4c1.3,0.1,2.6,0.2,3.7,0.3c0.4-0.9,0.6-1.6,0.6-1.6l1.1,1.7
		c2.3,0.1,3.8,0.1,3.8,0.1s-1.3-8.2,0.1-13.7c-5.4-0.9-11.2-3.5-14.9-9.8c4.3-0.2,12.6,8.5,33.5,3.8c0,0,4.5,15,4.6,18.1
		c0,0,10,3.4,28.1-6.1c0,0-15,13.3-30.6,8.7c-1.5-10.9-4.1-18.1-4.1-18.1s-11.2,0.9-15,0.9c-5.5-0.1-11.9-2.3-16.5-7.3
		c-4.3,0.2,9.7,13.5,9.7,13.5c-1.8,2.2-2,6.2-2,6.2c-6.8-0.4-11.7-1.9-14.1-2.8L123.5,274.9z"/>
</g>
<path class="st0" d="M92.3,129.8c0,0,1.6,7.7,5.4,12.1c0,0-6.8,4.3-4.1,9.8c0,0,0,3,7.1,11.2c9.7,11.1,16.3,18.7,22.9,32.2
	c2.8,5.6,14.1,22.2,36.4,12.5c22.2-9.7-15.3-26.8-15.3-26.8l-23.8-20.5l-13.1-23.1C107.7,137.2,96.7,115.8,92.3,129.8z"/>
<g>
	<path class="st0" d="M251,222.1c-4,2.6-15.9,1.8-19.3-10.6c-11.9-1.1-14.3-10.3-15.6-15.6c-3.3-14.2,10.4-25.6,15.4-29.3
		c-0.2-4.8-2.5-10-4.6-14.7c-2.8-6.1-3.9-11.2-1.9-16.3c1.6-3.9,5.7-6.6,9.8-6.6c5,0,10.9,2.8,14,7.4c4.7,7,5.8,17.4,4.3,27
		c24.4-7.1,27.9,2.5,29.1,5c2,4,2.8,12.5-1.3,16.9C284.8,210.3,251.6,223,251,222.1z"/>
	<path class="st7" d="M269.5,195c-7.3,1.7-23.8,0.9-22.4-11c1.6-13.7,15.1-14.7,24.5-9.6c-6.6-1.6-17.2-2.9-21,5.4
		c-1.5,3.4-2.8,7.2,0.4,10.1c3.6,3.3,10.5,3.1,14.9,2.8c8.8-0.7,15.7-10.1,14.6-20.2c-1.4-12.8-29.8-4.9-30.9-5
		c0.8-6.8,2.2-20.9-2.6-28c-4.6-6.9-15.4-11.2-19-2.1c-2.8,7,3.7,14.9,6.6,25.3c0.9,3.1,1.2,10.8,0.9,13c-0.4-2.8-1.1-5-1.5-6.3
		c-5.4,4.1-15.8,13.3-15.8,25c0,7.1,5.5,14.1,13.4,14.9c1.7,0.2,3.9,1.4,11-2.6c-1.8,1.6-3.9,4.4-8.7,4.6c0.9,2.8,6.7,12.1,17.6,7.9
		c0.7,1.2,1.6,2.4,2.6,3.4c6,6.2,19.4-5.6,22-9.3c1.8-2.4,1.2-7.6,0.6-10.8c1.2-1.2,2.1-2.1,2.5-2.7c1.5-1.8,1.1-8.3,0.6-12.7
		C277.4,191,273.7,194,269.5,195z"/>
	<path class="st0" d="M259,226.8c-9.2,0-11.4-13.9-10.3-18.5c0.7-3,2.7-5.2,5.6-6c2.8-0.8,20.2-2.2,20.9-3.4l2.8-0.2
		c0.3,1.1,3.3,11.3,0.3,15.4C275.9,217.3,266.1,226.8,259,226.8z"/>
	<path class="st7" d="M276.1,199.6c0,0,1.5,9.5-1,13s-14.4,14.8-20.1,8.9c-5.7-5.9-6.6-15.4,0-17.4
		C261.6,202.2,275.6,203.3,276.1,199.6z"/>
	<g>
		<path class="st0" d="M269.5,195c-5.9,1.3-17.9,1.1-21.4-5.4c-1.6,2-3.3,4.6-3.7,7.4c-0.7,4.8,3.3,12,8.7,14.9
			c9.6,5.3,26.3-8.3,27.5-9.5c3.4-3.6,1.8-13.5,0.6-17.5C278.7,189.8,274.5,193.9,269.5,195z"/>
	</g>
	<g>
		<path class="st7" d="M269.5,195c-5.4,1.2-15.8,1.1-20.3-3.8c-3.2,4.3-4.1,10.7,3.3,16.7c7.7,6.2,23-5.4,25.3-8.3
			c1.4-1.7,1.5-7.2,1.3-11.4C276.7,191.6,273.3,194.1,269.5,195z"/>
	</g>
	<path class="st7" d="M233.4,170.4c0,0-14.7,13-14.1,23.9c0.6,10.9,13.4,16.6,22.6,11.9C233.1,204.2,220.3,188.4,233.4,170.4z"/>
	<path class="st7" d="M270.9,176.1c0,0-9.2-2.8-14.5,0c-5.3,2.8-7,9.2-5.5,12.1c1.8,3.6,8.1,3.7,13.1,3.7
		C262.3,185.5,267.5,178.2,270.9,176.1z"/>
	<path class="st7" d="M249.5,192.7c0,0-2.5,4.6-1,8.6c1.5,4.1,6.2,7.4,10.3,6.6c4.1-0.8,6.7-1.2,10.7-3.6c-4.4-2.2-6-7.9-6-7.9
		S254.4,197.7,249.5,192.7z"/>
	<path class="st7" d="M270.9,215.9c0,0-7.1,6.4-11.6,6.2s-8-6-8-10.2c4.1,2.8,6.3,4.6,19.7-1.3C270.6,213.5,270.9,215.9,270.9,215.9
		z"/>
	<g>
		<g>
			<g>
				<defs>
					<path id="SVGID_25_" d="M267,166.5c0,0,7.9-0.3,10.9,3.1c2.1,2.4,2.2,12.6-3,17.4C276.6,181.4,278.5,170.3,267,166.5z"/>
				</defs>
				<clipPath id="SVGID_26_">
					<use xlink:href="#SVGID_25_"  style="overflow:visible;"/>
				</clipPath>
				<g transform="matrix(1 0 0 1 0 0)" class="st22">
					
						<image style="overflow:visible;enable-background:new    ;" width="53" height="76" xlink:href="5E8B626B.jpeg"  transform="matrix(0.2325 0 0 0.2501 266.969 167.2081)">
					</image>
				</g>
			</g>
		</g>
	</g>
	<g>
		<g>
			<g>
				<defs>
					<path id="SVGID_27_" d="M234.2,133.8c2.3-0.8,14,0.1,15.2,21.2c-4-9.5-14.4-17.4-20.7-15.7
						C229.6,136.5,231.8,134.6,234.2,133.8z"/>
				</defs>
				<clipPath id="SVGID_28_">
					<use xlink:href="#SVGID_27_"  style="overflow:visible;"/>
				</clipPath>
				<g class="st23">
					
						<image style="overflow:visible;enable-background:new    ;" width="75" height="75" xlink:href="5E8B6269.jpeg"  transform="matrix(0.261 0 0 0.2804 229.2899 133.7783)">
					</image>
				</g>
			</g>
		</g>
	</g>
	<path class="st7" d="M245.2,205.8c0,0-5.5,7.4-10.4,6.1c2.6,3.4,5.4,7.7,14.2,7.7c-2.5-3.5-2.1-8.7-1.1-10.5
		C246.3,207.8,245.2,206.6,245.2,205.8z"/>
	<g>
		<g>
			<g>
				<defs>
					<path id="SVGID_29_" d="M278.7,190.2c0,0-0.5,7.1-1.5,8.5s-4.2,4-6.8,4.8c3.4-3.8,6.8-5.9,5.2-10.9
						C277.3,191.1,278.7,190.2,278.7,190.2z"/>
				</defs>
				<clipPath id="SVGID_30_">
					<use xlink:href="#SVGID_29_"  style="overflow:visible;"/>
				</clipPath>
				<g class="st24">
					
						<image style="overflow:visible;enable-background:new    ;" width="37" height="53" xlink:href="5E8B6267.jpeg"  transform="matrix(0.2118 0 0 0.226 270.6704 190.901)">
					</image>
				</g>
			</g>
		</g>
	</g>
	<g>
		<g>
			<g>
				<defs>
					<path id="SVGID_31_" d="M272.6,209.1l3.4-2.2c-0.5,2.4-1.2,6-5.1,9C273,211.3,272.6,209.1,272.6,209.1z"/>
				</defs>
				<clipPath id="SVGID_32_">
					<use xlink:href="#SVGID_31_"  style="overflow:visible;"/>
				</clipPath>
				<g transform="matrix(1 0 0 1 0 0)" class="st25">
					
						<image style="overflow:visible;enable-background:new    ;" width="26" height="44" xlink:href="5E8B6279.jpeg"  transform="matrix(0.1817 0 0 0.2047 271.0984 206.9103)">
					</image>
				</g>
			</g>
		</g>
	</g>
</g>
<path class="st0" d="M101.3,78.3c0,0,6.6-10.6,11.3-13.1c4.6-2.5,26.7-10.6,38.8-13.4s25.4-3.4,31.5-1.3c6.2,2,10,4.2,15.3,10.4
	s10,11.1,12.5,16.7c2.5,5.7,5.4,17.7,5.4,17.7s18.6-19.3,26.9-25c8.4-5.7,19.9-16.1,22.6-14.6c2.6,1.5,3.7,0.5,1.1,11.7
	s-21.2,43.2-24.6,51.9s-10.7,23.2-17.3,24.7s-13.1,2.2-13.1,2.2s-2.8,19.3-17.2,35.7s-28.5,25-41.8,27.5s-21.5-4.9-24-10.2
	c-2.5-5.4-15.2-24.7-20.4-30.6c-5.2-5.9-13.7-13.6-13.7-18.2c0-4.6,1.9-7.1,4.9-7.6c0,0-4.2-6.1-5.1-10.8c0,0-7.8-8-10.7-10.7
	c-2.9-2.8-8.6-9.7-6.9-11.6s8.7-4.3,14.5-0.6c0,0,0.8-7.5,3.5-15.4C97.5,85.7,101.3,78.3,101.3,78.3z"/>
<path class="st7" d="M137,58.2c0,0,15.5-5.4,21.9-6.3c6.4-0.9,14.8-1.2,20.4-0.3c5.6,0.9,11.2,3.2,17.1,9.7s9.5,11.7,12.7,17.8
	c3.2,6.1,4.6,11.7,6.1,16.7c0,0-0.7,2.1-2.3,4.1c0,0,1.8-0.7,5.1-4.1s15.2-14.9,19.7-18.6s13.2-10.7,17.3-13.6s7.8-6,9.4-6.2
	c1.5-0.2,3.1,0.6,2.1,5s-2.5,9.4-6.3,17.9s-9.9,20.3-10.8,22c-0.9,1.7-7.9,16-9.4,18.8s-5.4,10.2-7.5,12.8
	c-2,2.6-8.7,10.6-18.9,10.2c0,0,2.7-5.9,2-13c0,0-3.6,11-5.6,16.5c-2.1,5.4-4.6,12.6-11.1,23.6s-9.2,13.3-17,20.9
	c0,0-12.3,10-23.8,14.2c-11.4,4.1-14.1,2.7-19.5,0.2s-8.2-6.4-9.7-9.5s-9.2-15.6-11.1-18.2c-1.9-2.6-11-14.5-13.7-17
	s-6.5-7.3-7.2-8.6s-1.8-10.4,6.1-9.1c0,0,0.9-0.3,0.3-0.8s-4.5-4.1-5.7-6.8c-4.9-11.2-6-23.3-2.6-35.5c1.5-5.5,7.9-26.1,17-32.1
	C120.8,62.9,137,58.2,137,58.2z"/>
<path class="st10" d="M169.1,51c3.7-0.1,7.3,0,10.2,0.5c5.6,0.9,11.2,3.2,17.1,9.7s9.5,11.7,12.7,17.8s4.6,11.7,6.1,16.7
	c0,0-0.7,2.1-2.3,4.1c0,0,1.8-0.7,5.1-4.1c0.6-0.6,1.4-1.5,2.5-2.5c-0.2,3.6-0.5,8-0.7,12c-0.3,8,0.5,8.5-0.2,14.3
	c-0.8,5.8-0.6,8.9,1,12.9s5.1,1.8,10.7-2.9c5.6-4.7,9.4-13.2,12.1-19.3c2.7-6.1,13.8-30.3,12.4-28.8c-1.5,1.5-6.1,2.7-10.7,6.9
	c-4.6,4.3-3.9,5.2-3.9,5.2s0.4,2.4-2,6.8s-10.5,20.3-13.2,22.6c-2.8,2.2-3.9,2.6-4.7,1.5s2.8-7.3,2.2-11.1s0.5-5.2,0.5-5.2L259.8,62
	l2.9-3.9c0.7-0.4,1.2-0.6,1.6-0.7c1.5-0.2,3.1,0.6,2.1,5c-1,4.3-2.5,9.4-6.3,17.9s-9.9,20.3-10.8,22c-0.9,1.7-7.9,16-9.4,18.8
	c-1.5,2.8-5.4,10.2-7.5,12.8c-2,2.6-8.7,10.6-18.9,10.2c0,0,2.7-5.9,2-13c0,0-3.6,11-5.6,16.5c-2.1,5.4-4.6,12.6-11.1,23.6
	s-9.2,13.3-17,20.9c0,0-12.3,10-23.8,14.2c-11.4,4.1-14.1,2.7-19.5,0.2s-8.2-6.4-9.7-9.5c-0.1-0.2-0.3-0.6-0.5-0.9
	c1.3,0.2,2.7,0.7,4.2,1.4c25.8,11.9,79.9-39.9,66.9-71.7c-3.6-8.7-2-9.7,0.1-21.8c2.2-12.1-5.9-20.3-12.1-35.7
	C181.3,52.9,169.1,51,169.1,51z"/>
<path class="st7" d="M79.5,113.2c0,0-2.6-1.8-1.2-2.8s3.8-3.1,9.7-1.3l3.2,1.2c0,0-0.8,3.5-0.5,5.1c0,0-2.3-2.8-7.6-2.5
	c0,0,6.3,1.8,7.5,4.3c0.2,2.9,1.7,8.6,2.8,11.4c0.4,0.9-6.4-7.2-9-9.5C82.9,117.6,79.5,113.2,79.5,113.2z"/>
<path class="st0" d="M215.2,114.7c0,0-2.2-3.2-0.9-5s3.8-7,7-11.2s12.1-13.7,15-16.7c2.9-3.1,7.7-8.8,9.7-10.6
	c2.1-1.8,8.2-7.1,6.8-5.2s-5.6,9.7-9.1,15.9c-3.6,6.2-6.7,9.9-6.5,8.5s0.5-2.3,2.9-5.7s6.9-11.1,6.9-11.1s-13.4,14.1-17.3,18.3
	c-3.9,4.3-8.9,11.6-10.7,13.8c-1.8,2.3-4.4,4.7-3.4,6.6s3,2.9,2,6s-4.1,8.2-2,7.3c2.2-0.8,4.3-1.9,8.4-8.2s8.2-16.8,8.7-18.9
	c0.5-2,1.1-4.2-0.4-2.5s-5.5,7.3-6.1,8c-0.7,0.7-0.2,0.2,1.4-2.4c1.6-2.6,2.9-5.3,4.2-6.6s4-2.7,2.8,1.1c-1.2,3.7-2.9,9.8-4,12.1
	c-1.1,2.3-6.1,11.2-6.6,11.9c-0.5,0.7-4.7,5-6,6.1c-1.4,1.1-5.3,2.3-4.2-0.8c1.2-3.1,2.7-6.1,2.7-7.2
	C216.4,116.8,215.2,114.7,215.2,114.7z"/>
<radialGradient id="SVGID_33_" cx="123.4737" cy="545.2148" r="12.9724" gradientTransform="matrix(1.2428 0 0 1.3463 17.1701 -594.4033)" gradientUnits="userSpaceOnUse">
	<stop  offset="0" style="stop-color:#FFFFFF"/>
	<stop  offset="0.74" style="stop-color:#FFFFFF"/>
	<stop  offset="1" style="stop-color:#A4A7A9"/>
</radialGradient>
<path class="st26" d="M163.5,126.9c0,0-4.5,4.3-5.3,5.9c0.6,13.5,1,17.2,6.3,19.7s10,0.5,10,0.5c2.3-2.9,7.5-5.8,7.5-5.8l6.4-19.3
	C188.4,128,177.5,113,163.5,126.9z"/>
<path class="st27" d="M176,135.6l3.8-1.4c0.3-6,0.2-12.7-5.2-12.8c-5.8-0.1-6.4,7.3-6.7,13.6c-0.2,6.3,0.4,14.6,5.8,14.6
	c4.4,0.1,5.7-6.2,6-12L176,135.6z"/>
<path class="st0" d="M157.5,133.5c0,0,15.5-19.1,28.5-5c-1.2,7.7-1.9,12.8-1.9,12.8l6.7-13.9C190.7,127.4,173,106,157.5,133.5z"/>
<radialGradient id="SVGID_34_" cx="79.4641" cy="546.6837" r="14.4641" gradientTransform="matrix(1.2428 0 0 1.3463 17.1701 -594.4033)" gradientUnits="userSpaceOnUse">
	<stop  offset="0" style="stop-color:#FFFFFF"/>
	<stop  offset="0.74" style="stop-color:#FFFFFF"/>
	<stop  offset="1" style="stop-color:#A4A7A9"/>
</radialGradient>
<path class="st28" d="M127.3,127.1c0,0,4.5,3.8,5.1,5.6c0.5,4.5-0.9,17-0.9,17s-2.1,2.9-4.5,4c-4.1,1.9-10.9,1.3-13.9-1.3
	c-2.9-2.6-9.6-23.3-9.6-23.3S110.7,113.8,127.3,127.1z"/>
<linearGradient id="SVGID_35_" gradientUnits="userSpaceOnUse" x1="125.7" y1="580.5057" x2="177.4" y2="580.5057" gradientTransform="matrix(1 0 0 1 0 -411.1562)">
	<stop  offset="0" style="stop-color:#FFFFFF"/>
	<stop  offset="0.59" style="stop-color:#FFFFFF"/>
	<stop  offset="0.88" style="stop-color:#A4A7A9"/>
	<stop  offset="1" style="stop-color:#A4A7A9"/>
</linearGradient>
<path class="st29" d="M125.7,168c0,0,6.8,6.4,9.7,11.6c12.3,1.2,32.8-2.8,42-18.3c-2.7-2-3.2-2.4-3.2-2.4S158.1,174.7,125.7,168z"/>
<path class="st0" d="M159.5,170.6c-14,4.2-23.3,3.2-27,2.5c-1.4-2-2.9-3.9-4.2-4.9c-1.5-0.3-2.6-0.1-2.6-0.1s4.3,4.2,9.7,11.6
	c1.2,0.1,1.6,0.2,1.6,0.2s-1.3-2.3-3.1-4.9C137.9,175.7,147.4,176.2,159.5,170.6z"/>
<path class="st0" d="M156.9,130.7c0,0,19.2-25,42.5-13.9c-0.4-4,0.4-11.8,0.4-11.8l-5.7-1.3l6.2-2.8c0,0-8.7-6.8-21.3-1
	c-8.4,3.8-18,13-24,25.2C156.4,127.8,156.9,130.7,156.9,130.7z"/>
<path class="st10" d="M157.6,127.4c-0.2-0.7-0.5-1.4-0.9-2.2c6.2-10.9,13.7-18.7,21.1-22.1c3.8-1.7,7.7-2.6,11.6-2.6
	c2.4,0,4.6,0.3,6.2,0.7l-6.5,3l8.9,2.1c-0.3,1.7-0.6,4.6-0.7,7.3c-3.4-1.3-6.9-2-10.4-2C172.8,111.6,161.8,122.5,157.6,127.4z"/>
<path class="st27" d="M124,137.7l3.5-1.4c0.2-6,0.2-12.7-4.7-12.8c-5.2-0.1-5.8,7.3-6,13.6s0.4,14.6,5.2,14.6c4,0.1,5.1-6.2,5.4-12
	L124,137.7z"/>
<g>
	
		<linearGradient id="SVGID_36_" gradientUnits="userSpaceOnUse" x1="124.9179" y1="541.755" x2="125.2066" y2="558.0735" gradientTransform="matrix(1 0 0 1 0 -411.1562)">
		<stop  offset="0" style="stop-color:#144EA2"/>
		<stop  offset="0.4432" style="stop-color:#1350A3"/>
		<stop  offset="0.6463" style="stop-color:#1058A9"/>
		<stop  offset="0.8005" style="stop-color:#0C64B2"/>
		<stop  offset="0.9291" style="stop-color:#0576BE"/>
		<stop  offset="1" style="stop-color:#0084C8"/>
	</linearGradient>
	<path class="st30" d="M124,136.8c0,0.3,0,0.6,0,0.8l2.3-0.9c0-1.7,0-4.4-0.3-6.7c-0.9-0.3-1.7-0.4-2.4-0.5
		C123.9,131.4,124,134,124,136.8z"/>
	
		<linearGradient id="SVGID_37_" gradientUnits="userSpaceOnUse" x1="122.0288" y1="541.8162" x2="122.3175" y2="558.1352" gradientTransform="matrix(1 0 0 1 0 -411.1562)">
		<stop  offset="0" style="stop-color:#144EA2"/>
		<stop  offset="0.4432" style="stop-color:#1350A3"/>
		<stop  offset="0.6463" style="stop-color:#1058A9"/>
		<stop  offset="0.8005" style="stop-color:#0C64B2"/>
		<stop  offset="0.9291" style="stop-color:#0576BE"/>
		<stop  offset="1" style="stop-color:#0084C8"/>
	</linearGradient>
	<path class="st31" d="M124,137.7c0,4.8-0.6,8.4-1.8,8.5c-1.4,0.1-1.8-4.2-1.8-9.4c0-2.7,0.1-5.1,0.4-6.8c-1,0.3-1.7,0.8-2.2,1.2
		c-0.2,1.7-0.4,3.7-0.5,6c-0.2,5.9,0.5,10.1,1.9,11.9c0.5,0.7,1.2,1,2,1l0,0c2.7,0,4.1-6.4,4.3-10.9L124,137.7z"/>
</g>
<path class="st32" d="M138.7,156.5c0,0-4.9-8.2-10.9-6.8c-6,1.4,1.9,7.9,2,9.1C132.6,158.1,138.7,156.5,138.7,156.5z"/>
<g>
	<g>
		<g>
			<defs>
				<path id="SVGID_38_" d="M122.8,156.5c0,0,3.5,0.5,5.6,0.1c-0.6-2-2-4.8,0.7-5.4c2.5-0.5,7.6,4,10,5.3c-1.4-5.4-6.1-9.7-6.1-9.7
					l1.2-12.3l36.8,24.1c0,0-18.4,13.7-52.5,5.3C121.5,159.4,122.8,156.5,122.8,156.5z"/>
			</defs>
			<clipPath id="SVGID_39_">
				<use xlink:href="#SVGID_38_"  style="overflow:visible;"/>
			</clipPath>
			<g class="st33">
				
					<image style="overflow:visible;enable-background:new    ;" width="184" height="117" xlink:href="5E8B627B.jpeg"  transform="matrix(0.2534 0 0 0.2742 121.5027 134.5385)">
				</image>
			</g>
		</g>
	</g>
</g>
<path class="st0" d="M127.2,155.4c-3.3-3.4-3.3-7.6,1.3-8c3.9-0.3,8.8,4.8,9.2,7.3C133.6,150.9,124.3,146.7,127.2,155.4z"/>
<path class="st0" d="M133.5,134.1c0,0-15.5-19.1-28.5-5c1.2,7.7,2.8,12.7,2.8,12.7l-7.5-13.8C100.3,128,118,106.6,133.5,134.1z"/>
<path class="st0" d="M157.9,184.4c-3.6,0.3-10.3-1.7-12.6,2.3C144.2,179.8,155.3,182.3,157.9,184.4
	C155.4,184.6,156.9,183.6,157.9,184.4z"/>
<path class="st0" d="M202.7,146.7c-8.4-2.5-21.5-3.5-27.9,4.6c-2.5,3.2-2.7,5.6-1.6,7.5c-16.3,11.4-38.1,11-56.4,5.6
	c0.1,0.3,2.9-4.5,4.7-7c-2.2,2.4-6.6,5.8-8.8,7.8c18.9,6.6,40.9,9.5,62.1-4.5c0.2,0.2,0.5,0.4,0.8,0.5c-2,3.8-6.1,9.3-19.2,14.9
	c-7.4,3.2-17.8,3.7-27,2.8c12,3.8,25,2,35.9-4.3c5.9-3.4,9.7-6.9,13.1-12.1c3.5,1.1,7.8,1.3,10.6,0.6c-4.3-1-19-3.5-11.8-11.2
	C183.3,145.4,195,146.5,202.7,146.7z"/>
<g>
	
		<linearGradient id="SVGID_40_" gradientUnits="userSpaceOnUse" x1="176.9667" y1="539.588" x2="177.2554" y2="555.9064" gradientTransform="matrix(1 0 0 1 0 -411.1562)">
		<stop  offset="0" style="stop-color:#144EA2"/>
		<stop  offset="0.4432" style="stop-color:#1350A3"/>
		<stop  offset="0.6463" style="stop-color:#1058A9"/>
		<stop  offset="0.8005" style="stop-color:#0C64B2"/>
		<stop  offset="0.9291" style="stop-color:#0576BE"/>
		<stop  offset="1" style="stop-color:#0084C8"/>
	</linearGradient>
	<path class="st34" d="M176,134.7c0,0.3,0,0.6,0,0.8l2.5-0.9c0-1.7,0-4.4-0.3-6.7c-1-0.3-1.9-0.4-2.7-0.5
		C176,129.2,176,131.8,176,134.7z"/>
	
		<linearGradient id="SVGID_41_" gradientUnits="userSpaceOnUse" x1="173.878" y1="539.646" x2="174.1668" y2="555.9678" gradientTransform="matrix(1 0 0 1 0 -411.1562)">
		<stop  offset="0" style="stop-color:#144EA2"/>
		<stop  offset="0.4432" style="stop-color:#1350A3"/>
		<stop  offset="0.6463" style="stop-color:#1058A9"/>
		<stop  offset="0.8005" style="stop-color:#0C64B2"/>
		<stop  offset="0.9291" style="stop-color:#0576BE"/>
		<stop  offset="1" style="stop-color:#0084C8"/>
	</linearGradient>
	<path class="st35" d="M176,135.6c-0.1,4.8-0.6,8.4-2,8.5c-1.6,0.1-2-4.2-2-9.4c0-2.7,0.1-5.1,0.4-6.8c-1.1,0.3-1.9,0.8-2.4,1.2
		c-0.3,1.7-0.4,3.7-0.5,6c-0.2,5.9,0.5,10.1,2.1,11.9c0.6,0.7,1.3,1,2.2,1l0,0c3,0,4.5-6.4,4.8-10.9L176,135.6z"/>
</g>
<path class="st0" d="M135,131.6c0,0-17.8-25-39.7-13.8c0.3-4-0.5-11.8-0.5-11.8l5.3-1.3l-5.5-2.7c0,0,8.3-6.8,20.1-1
	c7.8,3.8,15.6,11,21.3,23.8C136,128.5,135,131.6,135,131.6z"/>
<path class="st10" d="M134.1,128.3c0.2-0.7,0.5-2.1,0.5-3.7c-5.8-10.9-12.2-17.2-19.1-20.6c-3.5-1.7-7.2-2.6-10.9-2.6
	c-2.3,0-4.3,0.3-5.8,0.7l6.1,3l-8.4,2.1c0.2,1.7,0.6,4.6,0.7,7.3c3.2-1.3,6.4-2,9.7-2C120.2,112.5,130.1,123.4,134.1,128.3z"/>
<g>
	<g>
		<g>
			<defs>
				<path id="SVGID_42_" d="M174.1,125c-0.8-0.3-3.1,0.2-3.5,1.3c-0.4,1.1-1.5,9.7,0.4,9.9C173,136.3,177,125.9,174.1,125z"/>
			</defs>
			<clipPath id="SVGID_43_">
				<use xlink:href="#SVGID_42_"  style="overflow:visible;"/>
			</clipPath>
			<g class="st36">
				
					<image style="overflow:visible;enable-background:new    ;" width="28" height="48" xlink:href="5E8B6279.jpeg"  transform="matrix(0.187 0 0 0.2058 169.8668 125.5499)">
				</image>
			</g>
		</g>
	</g>
</g>
<g>
	<g>
		<g>
			<defs>
				<path id="SVGID_44_" d="M122.7,127.5c-0.8-0.3-3.1,0.2-3.5,1.3s-1.5,9.7,0.4,9.9C121.6,138.8,125.6,128.4,122.7,127.5z"/>
			</defs>
			<clipPath id="SVGID_45_">
				<use xlink:href="#SVGID_44_"  style="overflow:visible;"/>
			</clipPath>
			<g class="st37">
				
					<image style="overflow:visible;enable-background:new    ;" width="30" height="45" xlink:href="5E8B627F.jpeg"  transform="matrix(0.1745 0 0 0.1868 118.4826 128.7913)">
				</image>
			</g>
		</g>
	</g>
</g>
<g>
	<path class="st0" d="M116.7,70.5c0.6-10.9,1.9-21.9,5.9-32.1c2.8-7.1,7.2-10.4,13.3-13.7c22.9-12.4,47.2-10.8,70.9-1.5
		c-8.5,0.5-16.4,0.7-23.7,6.1c-9.7,7.1-17.6,21.1-13.6,33.9c-11.4,2-22.7-4.3-34.1-4.1C126.7,59.3,121.8,63.6,116.7,70.5z"/>
</g>
<path class="st10" d="M181.5,19.9c-31.6-4.1-51.7,12.5-51.9,12.7l-0.1,0.1c-3.8,2.8-7.9,17-9.2,28.4c13.5-10.6,44.2-0.7,45.2-0.7
	c-1.2-6.9,1-15.5,5.9-23.2c5-7.7,12-13.2,19.5-15.6C187.8,20.9,184.6,20.3,181.5,19.9z"/>
<g>
	<path class="st0" d="M95.6,81.7c-4.7-7.5-5.6-16.3-4.9-25.4c1.1-13.7,7-23.4,17-31.3c-1.1,4.1-2.6,8.2-2.8,12.6
		c-0.4,15.6,3.6,16.7,5.4,18.2c-2.3,3.2-3.9,10.7-7.1,12.4C98.3,70.7,96.8,76.3,95.6,81.7z"/>
</g>
<path class="st7" d="M102.4,33.8C92.2,45.5,92.1,67.7,95.1,75c2.3-6.5,5.4-9.4,7-10c0.6-1.7,2.2-5.7,4.7-9.5
	C101.1,48.4,101.4,39.7,102.4,33.8z"/>
<g>
	<g>
		<path class="st0" d="M117.7,101.4l-2.4-2.3c-0.7-0.7-17.7-17.3-17.4-31c-0.7-13.3,2.7-26.3,10.4-36.1
			c8.4-10.6,25.8-20.2,41.7-19.9c-19.1,11.6-7.6,50.1-7.6,50.1s-24,20.1-24.6,35.9L117.7,101.4z"/>
	</g>
</g>
<path class="st10" d="M141.4,16.2c-31.2,7.9-42.5,29.5-40.9,52.2c0.3,3.8,2,8.3,4.2,12.6c-1.1-3.3-1.9-7-1.8-10.9v-3.3l1.8,2.7
	c1.2,1.9,3.3,4.2,4.5,5.4c-2-5.2-4.9-15.7-0.5-25.9c0,0-3.7,14.9,5.5,31.4c-2.1-0.7-6.5-3.8-9.2-7c1.1,10.1,7.5,18.6,10.5,22
	c5.6-22.4,24.1-35.6,24.1-35.6C137.6,46.7,133.2,27.8,141.4,16.2z"/>
<g>
	<path class="st0" d="M175.2,74.2c-8.1-9.1-19.6-12.5-31.1-10.3c-2.1,0.4-2.6-7.3-2.6-8.6c0.4-8.7,5.5-12.9,12.2-16.1
		c15.7-7.4,33.7-6.2,48.5,3.2c9.9,6.2,15.7,14.6,18.3,21.5C208.4,53.7,179.9,59.5,175.2,74.2z"/>
</g>
<path class="st10" d="M175.1,37.6c-9,0-17.9,2.7-26.5,8.1c-2.5,3.1-3.5,6-3.9,8.4c7.5-8.5,22.7-18,47.7-9.5
	c-28.2-6-42.4,6.7-47.7,13.4c0.1,1,0.4,1.8,0.6,2.4c5.5-2.2,21.3,2.1,28.5,8.7c3.8-7.2,23.9-17.7,40.7-11.4
	C206.3,47,191.6,37.6,175.1,37.6z"/>
<path class="st7" d="M145.5,53.2c7.7-8.2,22.7-16.8,46.8-8.6c-0.6-0.1-1.2-0.2-1.8-0.4c7.4,2,15.1,5.6,22.4,11.7
	c-8.3-9.9-22.3-18.3-37.9-18.3c-9,0-17.9,2.7-26.5,8.1c-2.4,3-3.5,5.9-3.9,8.3C145,53.7,145.2,53.5,145.5,53.2z"/>
<g>
	<path class="st0" d="M124.3,76.2c7-36.4,28-47,44.3-49.4c-17.1,10.1-16.9,36.6-16,49.7c-8.6-0.9-14.1,4.3-18.5,11.3
		C134.1,87.9,125,81.1,124.3,76.2z"/>
	<path class="st10" d="M159.1,31.7c-16.5,5.7-29.5,24.4-32.5,44.6c0.4,1.5,3,4.4,5.7,7c-0.4-5.3-0.5-19.8,8.9-32.5
		c-4.6,9.7-7.6,21.7-6.3,31.7c4.6-5.9,9.6-9.1,14.7-9.3C149.7,72.6,148.1,43.2,159.1,31.7z"/>
	<path class="st7" d="M141.3,50.8c-0.1,0.2-0.2,0.4-0.2,0.5c3.3-5.5,8.8-12.7,17.8-19.3c0.1-0.1,0.2-0.2,0.3-0.3
		c-16.5,5.7-29.5,24.4-32.5,44.6c0.4,1.5,3,4.4,5.7,7C132,78,131.9,63.5,141.3,50.8z"/>
</g>
<path class="st7" d="M100.5,68.4c0.3,3.8,2,8.3,4.2,12.6c-1.1-3.3-1.9-7-1.8-10.9v-3.3l1.8,2.7c1.2,1.9,3.3,4.2,4.5,5.4
	c-2-5.1-4.9-15.5-0.6-25.6c2.9-10.2,10.9-23.9,32.6-33l0.1-0.1C110.2,24.1,98.8,45.7,100.5,68.4z"/>
<linearGradient id="SVGID_46_" gradientUnits="userSpaceOnUse" x1="79.0413" y1="737.1416" x2="82.8007" y2="773.2118" gradientTransform="matrix(1 0 0 1 0 -411.1562)">
	<stop  offset="0" style="stop-color:#6FBE44"/>
	<stop  offset="1" style="stop-color:#D2DE26"/>
</linearGradient>
<polygon class="st38" points="88.6,327.8 83.9,328.4 83.9,350.6 72.7,352 73.3,329.4 68,329.9 68.3,320.2 89.7,318.4 "/>
<linearGradient id="SVGID_47_" gradientUnits="userSpaceOnUse" x1="98.4604" y1="734.5558" x2="102.4627" y2="772.9557" gradientTransform="matrix(1 0 0 1 0 -411.1562)">
	<stop  offset="0" style="stop-color:#6FBE44"/>
	<stop  offset="1" style="stop-color:#D2DE26"/>
</linearGradient>
<path class="st39" d="M98.6,330.2L98.6,330.2c0.7-0.9,1.5-1.5,2.4-1.9s1.9-0.6,2.9-0.6c1.1,0,2.1,0.2,2.9,0.6c0.9,0.4,1.6,1,2.2,1.7
	s1,1.5,1.3,2.5s0.4,2,0.4,3.1l-0.2,15.3l-8.3,0.7v-14.4c0-0.5-0.2-0.8-0.5-1.1c-0.3-0.3-0.7-0.5-1.3-0.5c-0.5,0-0.9,0.1-1.3,0.5
	c-0.4,0.3-0.5,0.7-0.5,1.3v14.4l-8.3-0.7L90,319.8l8.9-0.7L98.6,330.2z"/>
<linearGradient id="SVGID_48_" gradientUnits="userSpaceOnUse" x1="121.5202" y1="733.2917" x2="125.3618" y2="770.1503" gradientTransform="matrix(1 0 0 1 0 -411.1562)">
	<stop  offset="0" style="stop-color:#6FBE44"/>
	<stop  offset="1" style="stop-color:#D2DE26"/>
</linearGradient>
<path class="st40" d="M134.5,348.4c-1.6,1.2-3.3,2-4.9,2.5c-1.7,0.5-3.6,0.8-5.8,0.8c-1.8,0-3.4-0.3-4.9-0.9s-2.8-1.5-3.9-2.5
	s-1.9-2.3-2.5-3.7s-0.9-2.9-0.9-4.5c0-2,0.3-3.7,0.9-5.3c0.6-1.6,1.5-2.9,2.6-4s2.3-1.9,3.8-2.5s3-0.9,4.6-0.9c2.6,0,4.9,0.7,6.9,2
	c1.9,1.3,3.4,3.1,4.3,5.4l-11.8,8.9c0.3,0.2,0.7,0.3,1.1,0.3c0.5,0,0.9,0.1,1.3,0.1c1.2,0,2.2-0.2,3.1-0.6c0.8-0.4,1.6-1,2.3-1.6
	L134.5,348.4L134.5,348.4z M126,335.4c-0.4-0.5-0.8-0.8-1.2-0.9s-0.9-0.2-1.5-0.2c-0.5,0-1,0.1-1.4,0.3c-0.4,0.2-0.8,0.5-1.1,0.9
	s-0.6,0.8-0.7,1.3c-0.2,0.5-0.3,1-0.3,1.5s0,0.8,0.1,1s0.1,0.4,0.3,0.6L126,335.4z"/>
<linearGradient id="SVGID_49_" gradientUnits="userSpaceOnUse" x1="160.6933" y1="729.4509" x2="164.465" y2="765.6387" gradientTransform="matrix(1 0 0 1 0 -411.1562)">
	<stop  offset="0" style="stop-color:#6FBE44"/>
	<stop  offset="1" style="stop-color:#D2DE26"/>
</linearGradient>
<path class="st41" d="M169.7,331.7c-0.4-0.9-1-1.5-1.8-2c-0.8-0.4-1.7-0.6-2.7-0.6s-2,0.2-3,0.6c-1.1,0.4-2,1-2.9,1.8
	s-1.6,1.7-2.2,2.8s-0.9,2.4-0.9,3.8c0,1.3,0.2,2.3,0.6,3.1c0.4,0.8,1,1.3,1.7,1.7s1.4,0.5,2.2,0.5s1.6-0.2,2.4-0.6
	c0.8-0.4,1.5-0.8,2.2-1.4c0.6-0.6,1.1-1.3,1.4-2l-5.6,1.1l0.6-6.4l17.2-2.2c0.2,1.7,0.2,3.3-0.2,4.9s-0.9,3.1-1.6,4.5
	c-0.7,1.3-1.4,2.5-2.1,3.6c-0.7,1.1-1.4,1.9-1.8,2.4c-0.5,0.5-0.8,0.9-0.8,0.9c-0.9,1-2.1,1.8-3.5,2.5s-2.8,1.3-4.4,1.6
	s-3.2,0.5-4.8,0.5s-3.2-0.3-4.8-0.9c-1.5-0.5-2.9-1.4-4.2-2.5s-2.3-2.5-3.1-4.3c-0.9-2-1.4-4-1.5-5.9c-0.1-2,0-3.9,0.5-5.7
	c0.4-1.8,1.2-3.6,2.2-5.2s2.2-3.1,3.6-4.4c1.4-1.3,2.9-2.4,4.6-3.3c1.7-0.9,3.5-1.6,5.4-2c0.1,0,0.3,0,0.9-0.1
	c0.5-0.1,1.3-0.1,2.2,0c1,0,2.1,0.2,3.3,0.6c1.2,0.3,2.5,0.9,3.9,1.7s2.8,1.9,4.2,3.2L169.7,331.7z"/>
<linearGradient id="SVGID_50_" gradientUnits="userSpaceOnUse" x1="188.3563" y1="727.1597" x2="192.141" y2="763.4729" gradientTransform="matrix(1 0 0 1 0 -411.1562)">
	<stop  offset="0" style="stop-color:#6FBE44"/>
	<stop  offset="1" style="stop-color:#D2DE26"/>
</linearGradient>
<path class="st42" d="M203.3,337.7c0.3,1.8,0.2,3.5-0.3,5.1c-0.4,1.6-1.1,3-2.1,4.1c-1,1.2-2.2,2.2-3.6,3s-3,1.3-4.8,1.5
	s-3.4,0.2-5.1-0.2s-3-1-4.3-1.8s-2.3-2-3.2-3.4s-1.4-3-1.6-4.8c-0.3-1.8-0.2-3.5,0.3-5.1c0.4-1.6,1.1-3,2.1-4.2s2.2-2.2,3.6-3
	s3-1.3,4.8-1.5s3.4-0.2,5,0.2s3,1,4.3,1.8c1.3,0.9,2.3,2,3.2,3.4C202.5,334.3,203.1,335.9,203.3,337.7L203.3,337.7z M186.7,341.1
	c0.4,1,1.2,1.7,2.1,2c1,0.3,2.1,0.2,3.3-0.3s2.1-1.3,2.5-2.2c0.5-0.9,0.5-1.9,0.1-2.9s-1.2-1.7-2.1-2s-2.1-0.2-3.3,0.3
	s-2.1,1.3-2.6,2.2C186.3,339.1,186.3,340.1,186.7,341.1z"/>
<linearGradient id="SVGID_51_" gradientUnits="userSpaceOnUse" x1="213.5077" y1="723.1281" x2="217.4654" y2="761.0999" gradientTransform="matrix(1 0 0 1 0 -411.1562)">
	<stop  offset="0" style="stop-color:#6FBE44"/>
	<stop  offset="1" style="stop-color:#D2DE26"/>
</linearGradient>
<path class="st43" d="M218.5,327.3c1.6,0,3,0.3,4.4,1c1.3,0.7,2.5,1.6,3.4,2.7c1,1.1,1.7,2.4,2.3,3.8c0.5,1.4,0.8,2.9,0.8,4.4
	c0,2-0.3,3.7-1,5.3s-1.6,2.8-2.7,3.9c-1.1,1-2.4,1.8-3.9,2.4c-1.5,0.5-3,0.8-4.6,0.8c-1.2,0-2.4-0.2-3.4-0.6c-1.1-0.4-2.1-0.9-3-1.3
	v1.7h-6.3l-0.2-31.9l9.1-0.7l-0.4,10.3c0.8-0.5,1.6-0.8,2.4-1.1C216.3,327.5,217.2,327.3,218.5,327.3L218.5,327.3z M217.7,343.3
	c0.6-0.2,1.2-0.4,1.6-0.8s0.8-0.7,1.1-1.1s0.5-0.9,0.5-1.3c0.1-0.5,0.1-1-0.1-1.4s-0.4-0.9-0.7-1.3s-0.7-0.6-1.2-0.9
	c-0.5-0.2-1-0.4-1.5-0.4c-0.6,0-1.2,0-1.8,0.2s-1.2,0.5-1.6,0.8s-0.8,0.7-1.1,1.1s-0.4,0.9-0.5,1.3s-0.1,1,0.1,1.4s0.4,0.9,0.7,1.3
	s0.7,0.6,1.2,0.9c0.5,0.2,1,0.3,1.6,0.4C216.5,343.5,217.1,343.5,217.7,343.3z"/>
<linearGradient id="SVGID_52_" gradientUnits="userSpaceOnUse" x1="231.7128" y1="721.3029" x2="235.7116" y2="759.6702" gradientTransform="matrix(1 0 0 1 0 -411.1562)">
	<stop  offset="0" style="stop-color:#6FBE44"/>
	<stop  offset="1" style="stop-color:#D2DE26"/>
</linearGradient>
<polygon class="st44" points="229.8,319.9 238.7,319.2 238.4,351 230,351.7 "/>
<linearGradient id="SVGID_53_" gradientUnits="userSpaceOnUse" x1="243.5801" y1="719.68" x2="247.6174" y2="758.4161" gradientTransform="matrix(1 0 0 1 0 -411.1562)">
	<stop  offset="0" style="stop-color:#6FBE44"/>
	<stop  offset="1" style="stop-color:#D2DE26"/>
</linearGradient>
<path class="st45" d="M241.8,328.9l8.8-0.7l-0.4,22.8l-8.4,0.7L241.8,328.9L241.8,328.9z M241.8,318.9l9.1-0.4l-0.5,7l-8.6,0.6
	V318.9z"/>
<linearGradient id="SVGID_54_" gradientUnits="userSpaceOnUse" x1="260.345" y1="718.9711" x2="264.304" y2="756.9563" gradientTransform="matrix(1 0 0 1 0 -411.1562)">
	<stop  offset="0" style="stop-color:#6FBE44"/>
	<stop  offset="1" style="stop-color:#D2DE26"/>
</linearGradient>
<path class="st46" d="M261.6,331h0.2c0.9-1.2,1.8-2,2.7-2.4s1.9-0.6,3-0.6s2.1,0.2,2.9,0.6s1.6,1,2.1,1.7c0.6,0.7,1,1.5,1.3,2.5
	s0.5,2,0.5,3.1v15.3l-8.5,0.7l0.1-14.4c0-0.5-0.1-0.9-0.5-1.2s-0.8-0.5-1.4-0.5c-0.5,0-1,0.1-1.4,0.5c-0.4,0.3-0.6,0.7-0.6,1.3
	l0.2,14.3l-8.4-0.6l-0.3-22.5l8.2-0.7L261.6,331L261.6,331z"/>
<g>
	<path class="st0" d="M73.5,248.5c-9-7.8,7.1-29.4,7.1-29.4s2.1,10.6,2.5,11.6c10.5-12,21.4,3.9,17.2,14.4
		C97.1,253.3,83.6,257.2,73.5,248.5z"/>
	<path class="st7" d="M83.2,235.6c0,0,5.5-11.5,12.4-3.6s1.5,20.2-12.7,17.5c-13-2.5-9.7-10.8-3.6-22.2
		C80.6,234,83.2,235.6,83.2,235.6z"/>
	<path class="st7" d="M74.5,241.9c0,0,0.1,2.4,1.8,3.9c2.9,2.7,11.8,5.3,18.9,0.6c-0.7-1.3-2.4-3.4-1.4-4.8
		C92,243.5,81.6,245.9,74.5,241.9z"/>
	<path class="st0" d="M70,238.4c-4.9-5.2-4.3-18,6.1-23.6l3.5-4l1,5.5c0.3,1.7,0.6,3.1,0.9,4.2c2.3-2.5,5.6-5.5,9.4-5.7
		c12.4-0.7,14,14.3,10.6,19.7c-1.9,3-7.4,10.6-22.3,8.3C74.7,242,72,240.5,70,238.4z"/>
	<path class="st7" d="M80.6,226c0,0,8.9-13.9,15.8-6s2.9,23.1-16.9,19.9c-7.7-1.3-15-10-3.9-22.6C76.8,224,80.6,226,80.6,226z"/>
	<path class="st0" d="M72,226c-12.1-10.6,1.1-28.7,1.1-28.7s2.4,8.1,6,11.3c2.3-4.5,10.7-14.9,18.7-5.4c3.5,4.2,3.8,10.8,0.9,16.5
		c-3.1,6.2-10.1,11.7-19,10.1C76.5,229.3,73.9,228,72,226z"/>
	<path class="st7" d="M95.6,205.7c-5.3-6.2-12.3,1.3-15.2,4.9c-1.3,2-2.1,4.4-1.8,7.1c-1.2-2.1-0.9-4.7-0.5-6.2
		c-1.5-1.3-4.1-4.1-5-8.3c-3.6,7.1-5.9,21.6,7.1,23.9C93.3,229.4,102.5,213.7,95.6,205.7z"/>
	<path class="st7" d="M94.5,206.4c-4.7-4.7-10.9,1.2-13.3,4.6c-1.3,1.8-2.5,5.4-2.2,7.9c-1.9-2.4-1.9-4.8-1.4-6.6
		c-1.4-1.2-3.7-3.1-4.5-6.9c-3.3,6.5-4.6,18.4,7.4,20.5C92.3,228.1,101.3,213.2,94.5,206.4z"/>
	<path class="st7" d="M71,225.9c0,0-1.7,5.9,2.2,10.1c4,4.3,15.8,5.3,23.3-1.1c-3.5,0.6-11.7,1.3-16.3-3.7
		C77.1,230.9,71.3,228.2,71,225.9z"/>
	<path class="st10" d="M96.8,214.7c0,0,1.2-6.9-2.7-9.3c-4-2.4-8.1-0.6-11.8,4.9C84.7,208.5,93.1,205,96.8,214.7z"/>
	<path class="st32" d="M97.5,223.5c0,0,4.2,9.9-6.5,14.7c2.7-3.1,3.8-7.5,1.9-10.3C94.5,227.1,96.9,224.7,97.5,223.5z"/>
	<path class="st32" d="M97.7,239.7c0,0,0,6.9-7.3,8.6c1.1-1.5,1.6-4.1,0.9-5.2C93.5,242.9,96.8,241.2,97.7,239.7z"/>
</g>
<g>
	<path class="st2" d="M70.3,201.3c-1.6,0.6-3.5,1.4-7.5,2.9c-4.5,1.8-7.4,3.5-8.4,4.1l0.3,1.3c1.7-0.8,6.5-3,9.1-4.1
		c3.3-1.3,5.6-2.1,7.1-2.5L70.3,201.3z"/>
	<path class="st47" d="M79.4,210L79.4,210L79.4,210L79.4,210L79.4,210z M74,208.2L74,208.2L74,208.2L74,208.2z"/>
	<path class="st2" d="M100.1,196.8l-0.1-0.3c0,0-0.1-0.5-0.8-0.6c-0.7-0.1-6,0.3-8.1,0.6c-1.3,0.2-3.2,0.4-4.6,0.6
		c-1.3,0.2-2.4,0.4-3.1,0.6l0.3,1.9c1.6-0.4,5.3-1.3,8.7-1.8C94.6,197.4,97.7,197,100.1,196.8z"/>
	<path class="st48" d="M61.7,101.9c-1.8,3.6-3.3,6.6-3.8,8.5c-0.2,0.6-0.3,0.9-0.3,1.1L77.1,195c1,0.3,2.6,0.8,3.8,0.7L65.6,95.8
		C64.3,97.4,63,99.3,61.7,101.9z"/>
	<path class="st2" d="M81,200.2c-0.2-0.9-0.6-2-0.8-2.9c-1.2-0.4-2.8-0.9-3.4-1.1l-4,4.2h-0.1l0.6,1.9l4.6-1.3L81,200.2z"/>
	<path class="st2" d="M73.2,203.7c0,0-4.9,1.4-9.1,3.1c-2.6,1.1-7.6,3.4-9.2,4.1l0.5,0.7c1.1-0.3,4.9-1.2,10.5-2.9
		c3.9-1.2,8-1.8,8-1.8H74c0,0,1.6,0.3,2.8,0.6c0.6,0.1,1.5,0.5,2.2,0.9c0.8-1.2,3.3-4.8,4.5-5.2c1.4-0.5,16.8-4.4,16.8-4.4l-0.1-0.8
		c-2.3,0.2-5.7,0.6-7.7,0.9c-4.4,0.7-9.3,2-9.4,2l0,0L73.2,203.7L73.2,203.7z"/>
	<path class="st48" d="M75.3,195.2l-19.9-82.4c-0.1-0.1-0.2-0.2-0.3-0.3c-1.2-1.3-3.8-4.3-7.3-7.3c-2.2-1.8-5.1-3.9-6.8-4.6
		l31.4,98.7L75.3,195.2z"/>
	<path class="st48" d="M48.8,103.7c1.7,1.2,3.2,2,4.7,3.5c1,1,1.5,1.4,2.5,2.4c1.3-3.3,2.7-6.1,4.3-9.3c1.5-3.1,3.4-5.6,3.8-7.5
		c-2.9-1.8-11.5-8.5-14-10.1c-1.5,2.7-7.6,13.4-9.3,16.5C42.4,99.8,46.1,101.8,48.8,103.7z"/>
	<g>
		<g>
			<g>
				<defs>
					<path id="SVGID_55_" d="M53.7,106.3c-0.1,0.3-0.2,0.5-0.3,0.8l0.1,0.1c1,1,1.5,1.4,2.5,2.4c1.3-3.3,2.7-6.1,4.3-9.3
						c1.5-3.1,3.4-5.6,3.8-7.5c-2.9-1.8-11.5-8.5-14-10.1c-0.5,0.9-1.5,2.6-2.6,4.6c2.4,3.1,7.1,5.9,9.7,8.3
						c0.3,0.2,0.6,0.5,0.7,0.9c0.3,0.7-0.1,1.4-0.4,2C56.3,101.1,55,103.7,53.7,106.3z"/>
				</defs>
				<clipPath id="SVGID_56_">
					<use xlink:href="#SVGID_55_"  style="overflow:visible;"/>
				</clipPath>
				<g class="st49">
					
						<image style="overflow:visible;enable-background:new    ;" width="70" height="104" xlink:href="5E8B629C.jpeg"  transform="matrix(0.2241 0 0 0.2472 48.0092 83.2874)">
					</image>
				</g>
			</g>
		</g>
	</g>
	<g>
		<g>
			<g>
				<defs>
					<path id="SVGID_57_" d="M78.3,195.4c0.8,0.2,1.8,0.4,2.5,0.4l-15.3-100c-1.2,1.5-2.5,3.4-3.9,6.1c-1.2,2.4-2.2,4.5-3,6.2
						c1.6,1.1,3.8,2.5,4.4,5.2c2,8.4,4.5,18.6,5.8,27C71.7,159.1,75.5,176.6,78.3,195.4z"/>
				</defs>
				<clipPath id="SVGID_58_">
					<use xlink:href="#SVGID_57_"  style="overflow:visible;"/>
				</clipPath>
				<g transform="matrix(1 0 0 1 0 0)" class="st50">
					
						<image style="overflow:visible;enable-background:new    ;" width="84" height="359" xlink:href="5E8B629C.jpeg"  transform="matrix(0.2434 0 0 0.2695 59.5497 97.4025)">
					</image>
				</g>
			</g>
		</g>
	</g>
	<path class="st0" d="M76.7,154.2l-0.4-2.7l-9.1-59.4v-0.3L67,91.7c-6.4-4-16.5-11.6-16.9-11.9l-0.6-0.4L49.1,80
		c-0.2,0.5-5.7,12.4-9.6,19.2l-0.1,0.3L58,158.1l0,0l0.3,1l4,12.4l0,0l9,28.3c-1.6,0.6-4.9,1.8-8.9,3.3l0,0c-5.8,2.2-8.9,4.4-9,4.5
		l-0.3,0.2l0.9,3.7h0.1l-0.1,0.1l1.1,1.6l0.4-0.1c0,0,4.1-0.9,10.9-3c1.5-0.5,3-0.8,4.4-1.1c0,0,1.5-0.5,3.3-0.6h0.1l0,0
		c1.8-0.1,4,0.2,5.5,1.8l0,0c0,0,3.8-7.1,9.4-6.2l0,0c1-0.3,2.2-0.6,3.3-0.9c6.8-1.7,10.8-3,10.9-3l0.4-0.1l0.2-2h-0.1h0.1l-0.9-3.7
		h-0.4c-0.1,0-3.8-0.3-9.9,0.7c-4.2,0.7-7.6,1.3-9.3,1.7l-4.6-30l-0.4-2.5l-1.1-7.2L76.7,154.2L76.7,154.2z M80.8,195.8L80.8,195.8
		c-1.1,0-2.8-0.4-3.8-0.7l-19.5-83.5c0.1-0.2,0.2-0.5,0.3-1.1c0.5-1.9,2-4.9,3.8-8.5c1.3-2.7,2.6-4.6,3.9-6.1L80.8,195.8L80.8,195.8
		z M83.2,201L83.2,201c0,0,4.9-1.3,9.4-2c2-0.3,5.3-0.7,7.7-0.9l0.1,0.8c0,0-15.4,3.9-16.8,4.4c-1.2,0.4-3.7,4-4.5,5.2
		c-0.7-0.3-1.6-0.7-2.2-0.9c-1.2-0.3-2.8-0.6-2.8-0.6h-0.2c0,0-4.1,0.6-8,1.8c-5.6,1.7-9.3,2.6-10.5,2.9l-0.5-0.7
		c1.5-0.7,6.5-3.1,9.2-4.1c2.4-1,4.8-1.8,7.3-2.5c0.5-0.2,1-0.3,1.6-0.5c1.1-0.3,2.2-0.6,3.4-1c1.5-0.4,3.1-0.8,4.6-1.3
		C81.6,201.4,82.4,201.2,83.2,201L83.2,201z M72.7,200.5L72.7,200.5L72.7,200.5l4.1-4.3c0.7,0.2,2.2,0.7,3.4,1.1
		c0.2,0.8,0.6,2,0.8,2.9l-3.1,0.9l-4.6,1.3L72.7,200.5L72.7,200.5z M83.6,199.6L83.6,199.6l-0.3-1.9c0.7-0.1,1.8-0.3,3.1-0.6
		c1.4-0.2,3.3-0.4,4.6-0.6c2.2-0.3,7.5-0.7,8.1-0.6c0.7,0.1,0.8,0.6,0.8,0.6l0.1,0.3c-2.3,0.2-5.5,0.6-7.7,0.9
		C88.9,198.2,85.2,199.2,83.6,199.6L83.6,199.6z M54.6,209.7L54.6,209.7l-0.3-1.3c1-0.6,3.9-2.3,8.4-4.1c4-1.6,6-2.4,7.5-2.9
		l0.6,1.8c-1.5,0.4-3.9,1.2-7.1,2.5C61.1,206.6,56.3,208.9,54.6,209.7L54.6,209.7z M50.2,82.7L50.2,82.7c2.5,1.6,11.1,8.3,14,10.1
		c-0.4,2-2.3,4.4-3.8,7.5c-1.6,3.2-3,6-4.3,9.3c-1-1.1-1.5-1.5-2.5-2.4c-1.5-1.4-3-2.3-4.7-3.5c-2.7-1.9-6.4-3.9-8-4.5
		C42.6,96.1,48.7,85.4,50.2,82.7L50.2,82.7z M47.7,105.1L47.7,105.1c3.6,2.9,6.1,6,7.3,7.3c0.1,0.2,0.2,0.3,0.3,0.3l19.9,82.4
		l-3,4.1l-31-98.4C43,101.5,45.5,103.3,47.7,105.1z"/>
</g>
<path class="st0" d="M136.6,280.8l0.6,2l0.9-1.9l-0.3-1.8C137.9,279.1,137,279,136.6,280.8z"/>
<path class="st0" d="M143.3,281.1l1.3,2.2l0.2-2.1l-0.7-1.7C144.1,279.4,143.2,279.8,143.3,281.1z"/>
<path class="st21" d="M123.5,274.9l-0.6,3.8l4.5-2.7c0,0-0.2-1.8-0.3-1.8S125,273.3,123.5,274.9z"/>
<path class="st21" d="M131.8,276.9v2.8l1.6-2.7l-0.3-0.9C133.1,276.1,132.4,276.2,131.8,276.9z"/>
<path class="st21" d="M135.9,277.4l1.4,5.4l2.4-5.2l-1.1-1.7C138.6,275.9,136.6,275.5,135.9,277.4z"/>
<path class="st21" d="M141.2,277.8l3.3,5l0.5-4.9l-2-2.9C143,275,141.1,275.9,141.2,277.8z"/>
<path class="st21" d="M120.4,273.5l-0.7,2.7l1.8-2.2l0.2-2.5C121.6,271.5,121.9,271.1,120.4,273.5z"/>
<path class="st0" d="M163.2,281.7l1,6.5l3-4l1.5,3.9l8.4-6l6.5,3.8l4.1-7.5c0,0-11.1,2.4-11.4,2.5
	C176,280.8,167.7,281.2,163.2,281.7z"/>
<path class="st21" d="M165.3,275.3c0,0,0,6.4-0.8,9.3l3.1-3.3l2.1,3.9l8.8-5.8l4.2,4.3l2.5-6.4C185.3,277.1,169.3,280.5,165.3,275.3
	z"/>
<g>
	<path class="st51" d="M183.7,256.9c0.1-1.5,0.8-4.6,0.5-5.8c-2-1-4.3-1.5-6.7-1.4c-1.2,0.1-2.2,0.3-3.3,0.6
		c-0.8,0.3-2.3,0.6-2.5,1.6c-0.3,1.4-1.9,14.5-1.8,15.3c0.9,0.8,2.1,1.1,3.6,1.4c0.3-0.7,0-0.8,0.5-1c0.4,0.2,0.1,0,0.4,0.9l0.9,0.4
		c0.1-0.8-0.1-1,0.4-1.4c0.5,0.3,0.3,0,0.4,0.6c0,0,0,0.7,0,0.9h1.1c0-0.6-0.1-1.4,0.4-1.4c0.6,0,0.3,0.8,0.3,1.4
		c1.8-0.1,3.6-0.6,4.2-1.8c1-1.7,0.7-3.2,0.8-5.3c-0.6-0.5-0.8-0.2-0.8-1c0.3-0.2,0.2-0.1,1,0l0.4-3.2c-0.8,0.3-1.1,0.6-1.6,0.3
		C182.1,257.3,182,257.5,183.7,256.9z"/>
	<path class="st0" d="M183.7,256.9c-1.7,0.6-1.6,0.4-1.7,1.2c0.4,0.3,0.7,0,1.6-0.3l-0.4,3.2c-0.7-0.2-0.7-0.2-1,0
		c0,0.8,0.2,0.4,0.8,1c-0.1,2.1,0.1,3.7-0.8,5.3c-0.7,1.2-2.4,1.7-4.2,1.8c0-0.6,0.3-1.4-0.3-1.4c-0.5,0-0.4,0.8-0.4,1.4h-1.1
		c0-0.2,0-0.8,0-0.9c-0.1-0.6,0.1-0.4-0.4-0.6c-0.5,0.4-0.3,0.5-0.4,1.4l-0.9-0.4c-0.3-1-0.1-0.7-0.4-0.9c-0.5,0.3-0.2,0.3-0.5,1
		c-1.5-0.2-2.7-0.6-3.6-1.4c-0.1-0.7,1.5-13.9,1.8-15.3c0.2-1,1.6-1.3,2.5-1.6c1.1-0.4,2.1-0.6,3.3-0.6c2.4-0.1,4.7,0.4,6.7,1.4
		C184.4,252.3,183.8,255.4,183.7,256.9L183.7,256.9z M184.4,256.6c0.5-5.8,2.3-6.4-3.8-7.6c-2.9-0.6-8.6,0.3-9.5,1.9
		c-0.2,0.4-1.3,9.9-1.5,11.1c-0.2,1.3-0.9,4.5-0.3,5.5c0.8,1.2,2.8,1,4.1,1.8c0.3,0.4,0.2,3.4,1.8,4.2c-0.3-1.3-1.1-2.5-1-4.1l1,0.2
		c0.2,1,0.2,1.5,0.5,2.4c0.6,1.6,0.6,1.5,1.2,1.4c-0.2-1.2-0.8-1.8-1-3.8l1.2,0.1c0.1,1.1,0.9,4.1,1.6,3.7c0.1-0.3-0.4-1.1-0.5-1.6
		c-0.2-0.7-0.3-1.3-0.3-2.1c6.5-0.3,5.5-5,5.8-7.7c0.8,0.1,1.5,0.4,2.4,0.3c2.1-0.2,1.7-0.6,1.6-0.8c-1.9,0-2,0.2-3.9-0.3l0.5-3.9
		c1.3-0.5,2.1-0.2,3.4-0.1C187.2,256.3,185.4,256.5,184.4,256.6z"/>
</g>
</svg>
